# xmcd
#
# Track frame offsets:
#	150
#	16915
#	38985
#	57721
#	75478
#	91212
#	106769
#	121649
#	138858
#	154274
#	168198
#	179747
#	194329
#	217150
#	234027
#	248849
#
# Disc length: 3579 seconds
#
# Revision: 0
# Processed by: cddbd v1.5.2PL0 Copyright (c) Steve Scherf et al.
# Submitted via: audiograbber 1.83.01
#
DISCID=cc0df910
DTITLE=Forever Hits - FH-3108 Male Country Favorites
DYEAR=2007
DGENRE=Karaoke
TTITLE0=Tim McGraw - All I want is a life
TTITLE1=Tim McGraw - My Best Friend
TTITLE2=Tim McGraw - Red Ragtop
TTITLE3=Buddy Jewell - Help Pour Out the Rain
TTITLE4=Neal McCoy - Then you can tell me goodbye
TTITLE5=Brad Paisley - Mud on the tires
TTITLE6=Toby Keith - I Wanna Talk About Me
TTITLE7=Toby Keith - Honky Tonk U
TTITLE8=Tracy Lawrence - Texas Tornado
TTITLE9=Tracy Lawrence - Alibis
TTITLE10=Travis Tritt - Here's a Quarter
TTITLE11=Kenny Chesney - I wonder do you think of me
TTITLE12=Kenny Chesney - When the sun goes down
TTITLE13=Kenny Chesney - Old Blue Chair
TTITLE14=Kenny Chesney - How Forever Feels
TTITLE15=Keith Urban - Your Everything
EXTD=
EXTT0=
EXTT1=
EXTT2=
EXTT3=
EXTT4=
EXTT5=
EXTT6=
EXTT7=
EXTT8=
EXTT9=
EXTT10=
EXTT11=
EXTT12=
EXTT13=
EXTT14=
EXTT15=
PLAYORDER=
